<?xml version="1.0" standalone="yes"?>
<svg xmlns="http://www.w3.org/2000/svg" width="704" height="320">
<path style="fill:#ffffff; stroke:none;" d="M0 0L0 203L1 203C1.05141 196.789 2.39224 190.887 4.35494 185C17.6974 144.98 59.5128 147 94 147L94 172C77.2192 172 56.3685 168.994 42.0008 179.613C21.3747 194.857 24.8856 231.897 47 244.095C63.5365 253.216 80.6742 246.813 94 236C94 243.884 97.0831 259.954 92.9722 266.775C90.0194 271.676 80.1278 272.543 75 273C56.4735 274.652 44.1496 269.417 27 264L27 320L600 320L600 319C589.556 315.449 585.763 303.095 581.248 294C569.502 270.342 557.151 246.382 547 222L546 222L545 318L528 318L528 227C528 216.766 525.257 201.049 536.004 195.14C547.676 188.722 556.211 200.977 560.752 210C573.751 235.828 586.9 262.303 598 289L599 289C604.499 259.378 600 225.138 600 195L617 195L617 288C617 298.47 619.994 314.241 608 319L608 320L704 320L704 3L703 3C695.655 20.903 687.153 50.3739 671 62L671 63C703.544 74.0814 697 111.531 697 139L678 139C678 123.693 683.903 92.161 669.957 81.6381C659.277 73.5797 640.562 77 628 77L628 139L609 139L609 2L628 2L628 59C636.966 59 647.449 60.5038 654.996 54.6057C665.906 46.0805 670.186 29.2191 675.694 17C677.553 12.8769 679.228 5.53598 683.275 3.02777C688.132 0.0170898 698.419 2 704 2L704 0L459 0L459 1C469.171 1.83075 478.805 6.54272 487 12.4283C505.121 25.4425 516.986 45.5515 517.961 68C519.511 103.73 488.813 140.558 452 140.996C421.034 141.365 391.554 125.407 380.229 95C365.918 56.5725 391.396 4.56143 435 1L435 0L231 0L231 93C231 121.909 229.276 150.779 200 165.627C181.39 175.065 158.161 172 138 172L138 147C153.694 147 172.933 150.012 187 141.521C209.584 127.888 207.585 91.1892 187 76.8001C171.393 65.8904 151.003 71.0603 138 83C138 75.2655 134.878 58.8993 139.028 52.2778C141.629 48.1268 149.611 47.3905 154 46.615C172.746 43.3026 186.73 50.0247 204 55L204 0L0 0z"/>
<path style="fill:#211f1f; stroke:none;" d="M204 0L204 56C190.362 46.3659 170.245 43.7644 154 46.615C149.723 47.3654 141.844 47.9045 139.028 51.6991C134.677 57.5612 138 75.7564 138 83C151.259 73.7712 163.463 66.9409 180 73.4645C204.58 83.1608 212.005 121.09 190.91 138.25C176.153 150.255 155.74 147 138 147L138 172C158.944 172 182.842 174.956 202 164.676C228.871 150.257 231 123.092 231 96L231 0L204 0z"/>
<path style="fill:#111111; stroke:none;" d="M435 0L436 1L435 0z"/>
<path style="fill:#211f1f; stroke:none;" d="M436 0.439056C426.288 1.9559 417.323 5.42725 409 10.615C345.293 50.3211 383.488 151.103 457 140.572C466.969 139.144 476.512 135.787 485 130.301C547.741 89.7489 510.306 -11.1661 436 0.439056z"/>
<path style="fill:#010101; stroke:none;" d="M458 0L459 1L458 0z"/>
<path style="fill:#1b1616; stroke:none;" d="M430 1L431 2L430 1M335 2L336 3L335 2z"/>
<path style="fill:#211f1f; stroke:none;" d="M299 139L318 139L318 80L365 80L365 62L318 62C318 49.724 316.545 31.7223 328.04 23.7029C335.06 18.8058 344.934 20 353 20C355.98 20 361.853 21.0728 363.972 18.3966C366.672 14.9875 365 6.16708 365 2C347.344 2 327.844 -0.203918 313.015 11.5293C300.88 21.1302 299.001 38.6253 299 53L299 139z"/>
<path style="fill:#1b1616; stroke:none;" d="M426 2L427 3L426 2z"/>
<path style="fill:#010101; stroke:none;" d="M467 2L468 3L467 2z"/>
<path style="fill:#211f1f; stroke:none;" d="M535 2L535 87C535 104.118 538.365 122.889 554 132.867C567.238 141.316 584.059 139 599 139L599 121C588.24 121 574.111 123.559 565.004 116.582C553.486 107.758 554 94.063 554 81L554 2L535 2M609 2L609 139L628 139L628 77C640.144 77 657.171 73.9539 667.986 80.6126C684.231 90.6141 678 122.785 678 139L697 139C697 112.719 703.881 71.9934 671 63C685.301 49.3953 698.856 21.3426 703 2C697.814 2 686.988 -0.071106 682.649 3.02777C678.918 5.69226 676.778 13.8849 675 18C670.085 29.3776 665.652 45.4327 655.96 53.6597C648.077 60.3509 637.606 59 628 59L628 2L609 2z"/>
<path style="fill:#010101; stroke:none;" d="M703 2L704 3L703 2z"/>
<path style="fill:#111111; stroke:none;" d="M423 3L424 4L423 3z"/>
<path style="fill:#010101; stroke:none;" d="M470 3L471 4L470 3M681 3L682 4L681 3M326 4L327 5L326 4M420 4L421 5L420 4z"/>
<path style="fill:#1b1616; stroke:none;" d="M472 4L473 5L472 4z"/>
<path style="fill:#010101; stroke:none;" d="M323 5L324 6L323 5z"/>
<path style="fill:#111111; stroke:none;" d="M418 5L419 6L418 5z"/>
<path style="fill:#010101; stroke:none;" d="M475 5L476 6L475 5z"/>
<path style="fill:#1b1616; stroke:none;" d="M321 6L322 7L321 6M477 6L478 7L477 6M701 6L702 7L701 6z"/>
<path style="fill:#111111; stroke:none;" d="M319 7L320 8L319 7z"/>
<path style="fill:#1b1616; stroke:none;" d="M414 7L415 8L414 7z"/>
<path style="fill:#010101; stroke:none;" d="M317 8L318 9L317 8z"/>
<path style="fill:#1b1616; stroke:none;" d="M412 8L413 9L412 8z"/>
<path style="fill:#010101; stroke:none;" d="M481 8L482 9L481 8z"/>
<path style="fill:#1b1616; stroke:none;" d="M679 8L680 9L679 8z"/>
<path style="fill:#010101; stroke:none;" d="M314 10L315 11L314 10z"/>
<path style="fill:#1b1616; stroke:none;" d="M409 10L410 11L409 10M484 10L485 11L484 10M678 10L679 11L678 10z"/>
<path style="fill:#010101; stroke:none;" d="M407 11L408 12L407 11M699 11L700 12L699 11z"/>
<path style="fill:#1b1616; stroke:none;" d="M487 12L488 13L487 12z"/>
<path style="fill:#010101; stroke:none;" d="M677 12L678 13L677 12z"/>
<path style="fill:#1b1616; stroke:none;" d="M698 13L699 14L698 13z"/>
<path style="fill:#010101; stroke:none;" d="M403 14L404 15L403 14z"/>
<path style="fill:#1b1616; stroke:none;" d="M402 15L403 16L402 15z"/>
<path style="fill:#010101; stroke:none;" d="M491 15L492 16L491 15z"/>
<path style="fill:#1b1616; stroke:none;" d="M697 15L698 16L697 15M492 16L493 17L492 16M307 17L308 18L307 17z"/>
<path style="fill:#ffffff; stroke:none;" d="M438 18.4637C373.177 29.922 389.783 132.827 455 122.561C520.98 112.175 504.033 6.7916 438 18.4637z"/>
<path style="fill:#010101; stroke:none;" d="M455 18L456 19L455 18z"/>
<path style="fill:#1b1616; stroke:none;" d="M456 18L457 19L456 18M364 19L365 20L364 19z"/>
<path style="fill:#010101; stroke:none;" d="M433 19L434 20L433 19z"/>
<path style="fill:#1b1616; stroke:none;" d="M674 19L675 20L674 19M305 20L306 21L305 20z"/>
<path style="fill:#010101; stroke:none;" d="M336 20L337 21L336 20z"/>
<path style="fill:#1b1616; stroke:none;" d="M429 20L430 21L429 20z"/>
<path style="fill:#010101; stroke:none;" d="M463 20L464 21L463 20M332 21L333 22L332 21M427 21L428 22L427 21z"/>
<path style="fill:#111111; stroke:none;" d="M466 21L467 22L466 21z"/>
<path style="fill:#010101; stroke:none;" d="M673 21L674 22L673 21z"/>
<path style="fill:#1b1616; stroke:none;" d="M304 22L305 23L304 22M329 22L330 23L329 22z"/>
<path style="fill:#010101; stroke:none;" d="M425 22L426 23L425 22M468 22L469 23L468 22M694 22L695 23L694 22z"/>
<path style="fill:#1b1616; stroke:none;" d="M327 23L328 24L327 23z"/>
<path style="fill:#010101; stroke:none;" d="M423 23L424 24L423 23M470 23L471 24L470 23z"/>
<path style="fill:#1b1616; stroke:none;" d="M303 24L304 25L303 24z"/>
<path style="fill:#111111; stroke:none;" d="M326 24L327 25L326 24z"/>
<path style="fill:#1b1616; stroke:none;" d="M421 24L422 25L421 24M693 24L694 25L693 24z"/>
<path style="fill:#010101; stroke:none;" d="M325 25L326 26L325 25z"/>
<path style="fill:#1b1616; stroke:none;" d="M501 25L502 26L501 25z"/>
<path style="fill:#010101; stroke:none;" d="M324 26L325 27L324 26z"/>
<path style="fill:#1b1616; stroke:none;" d="M391 26L392 27L391 26z"/>
<path style="fill:#010101; stroke:none;" d="M418 26L419 27L418 26z"/>
<path style="fill:#1b1616; stroke:none;" d="M475 26L476 27L475 26z"/>
<path style="fill:#010101; stroke:none;" d="M502 26L503 27L502 26M390 27L391 28L390 27z"/>
<path style="fill:#1b1616; stroke:none;" d="M670 28L671 29L670 28M414 29L415 30L414 29M504 29L505 30L504 29M301 30L302 31L301 30M388 30L389 31L388 30z"/>
<path style="fill:#111111; stroke:none;" d="M480 30L481 31L480 30z"/>
<path style="fill:#010101; stroke:none;" d="M505 30L506 31L505 30M669 30L670 31L669 30M387 31L388 32L387 31M412 31L413 32L412 31M690 31L691 32L690 31M411 32L412 33L411 32M410 33L411 34L410 33z"/>
<path style="fill:#1b1616; stroke:none;" d="M483 33L484 34L483 33z"/>
<path style="fill:#010101; stroke:none;" d="M507 33L508 34L507 33M689 33L690 34L689 33z"/>
<path style="fill:#1b1616; stroke:none;" d="M300 34L301 35L300 34M408 35L409 36L408 35M485 35L486 36L485 35M508 35L509 36L508 35M319 36L320 37L319 36M384 36L385 37L384 36M407 36L408 37L407 36M666 37L667 38L666 37M687 37L688 38L687 37z"/>
<path style="fill:#010101; stroke:none;" d="M487 38L488 39L487 38M405 39L406 40L405 39z"/>
<path style="fill:#1b1616; stroke:none;" d="M488 39L489 40L488 39z"/>
<path style="fill:#010101; stroke:none;" d="M665 39L666 40L665 39z"/>
<path style="fill:#1b1616; stroke:none;" d="M382 40L383 41L382 40z"/>
<path style="fill:#010101; stroke:none;" d="M299 42L300 43L299 42M403 42L404 43L403 42z"/>
<path style="fill:#1b1616; stroke:none;" d="M490 42L491 43L490 42M318 44L319 45L318 44z"/>
<path style="fill:#010101; stroke:none;" d="M491 44L492 45L491 44z"/>
<path style="fill:#111111; stroke:none;" d="M318 45L319 46L318 45z"/>
<path style="fill:#010101; stroke:none;" d="M513 45L514 46L513 45M154 46L155 47L154 46M178 46L179 47L178 46z"/>
<path style="fill:#1b1616; stroke:none;" d="M318 46L319 47L318 46z"/>
<path style="fill:#010101; stroke:none;" d="M492 46L493 47L492 46z"/>
<path style="fill:#1b1616; stroke:none;" d="M149 47L150 48L149 47M183 47L184 48L183 47z"/>
<path style="fill:#010101; stroke:none;" d="M379 47L380 48L379 47z"/>
<path style="fill:#1b1616; stroke:none;" d="M661 47L662 48L661 47z"/>
<path style="fill:#111111; stroke:none;" d="M187 48L188 49L187 48z"/>
<path style="fill:#010101; stroke:none;" d="M318 48L318 62L319 62L318 48M493 48L494 49L493 48M514 48L515 49L514 48z"/>
<path style="fill:#111111; stroke:none;" d="M142 49L143 50L142 49z"/>
<path style="fill:#1b1616; stroke:none;" d="M190 49L191 50L190 49z"/>
<path style="fill:#010101; stroke:none;" d="M139 50L140 51L139 50M399 50L400 51L399 50z"/>
<path style="fill:#1b1616; stroke:none;" d="M494 50L495 51L494 50M659 50L660 51L659 50M195 51L196 52L195 51M378 51L379 52L378 51z"/>
<path style="fill:#010101; stroke:none;" d="M658 51L659 52L658 51z"/>
<path style="fill:#1b1616; stroke:none;" d="M680 51L681 52L680 51M515 52L516 53L515 52z"/>
<path style="fill:#010101; stroke:none;" d="M657 52L658 53L657 52z"/>
<path style="fill:#1b1616; stroke:none;" d="M495 53L496 54L495 53z"/>
<path style="fill:#010101; stroke:none;" d="M656 53L657 54L656 53z"/>
<path style="fill:#1b1616; stroke:none;" d="M655 54L656 55L655 54M678 54L679 55L678 54z"/>
<path style="fill:#010101; stroke:none;" d="M203 55L204 56L203 55z"/>
<path style="fill:#1b1616; stroke:none;" d="M377 55L378 56L377 55M397 56L398 57L397 56M516 56L517 57L516 56z"/>
<path style="fill:#111111; stroke:none;" d="M652 56L653 57L652 56z"/>
<path style="fill:#211f1f; stroke:none;" d="M103 262C121.462 253.766 128.533 227.451 128.985 209C130.225 158.401 129 107.616 129 57C109.94 65.7549 104.371 90.2286 102.769 108.961C101.402 124.94 103 141.892 103 158L103 262z"/>
<path style="fill:#010101; stroke:none;" d="M676 57L677 58L676 57z"/>
<path style="fill:#1b1616; stroke:none;" d="M646 58L647 59L646 58z"/>
<path style="fill:#010101; stroke:none;" d="M675 58L676 59L675 58M124 59L125 60L124 59z"/>
<path style="fill:#1b1616; stroke:none;" d="M123 60L124 61L123 60z"/>
<path style="fill:#010101; stroke:none;" d="M376 60L377 61L376 60z"/>
<path style="fill:#1b1616; stroke:none;" d="M396 60L397 61L396 60z"/>
<path style="fill:#010101; stroke:none;" d="M673 60L674 61L673 60z"/>
<path style="fill:#1b1616; stroke:none;" d="M122 61L123 62L122 61z"/>
<path style="fill:#010101; stroke:none;" d="M396 61L397 62L396 61M672 61L673 62L672 61z"/>
<path style="fill:#1b1616; stroke:none;" d="M497 62L498 63L497 62M120 63L121 64L120 63z"/>
<path style="fill:#010101; stroke:none;" d="M497 63L498 64L497 63z"/>
<path style="fill:#1b1616; stroke:none;" d="M517 63L517 66L518 66L517 63M119 64L120 65L119 64M675 64L676 65L675 64M118 65L119 66L118 65z"/>
<path style="fill:#010101; stroke:none;" d="M117 66L118 67L117 66M684 69L685 70L684 69M114 70L115 71L114 70M685 70L686 71L685 70z"/>
<path style="fill:#1b1616; stroke:none;" d="M158 71L159 72L158 71z"/>
<path style="fill:#010101; stroke:none;" d="M159 71L160 72L159 71z"/>
<path style="fill:#1b1616; stroke:none;" d="M173 71L174 72L173 71M154 72L155 73L154 72z"/>
<path style="fill:#010101; stroke:none;" d="M177 72L178 73L177 72M687 72L688 73L687 72M112 73L113 74L112 73z"/>
<path style="fill:#1b1616; stroke:none;" d="M151 73L152 74L151 73z"/>
<path style="fill:#010101; stroke:none;" d="M180 73L181 74L180 73z"/>
<path style="fill:#1b1616; stroke:none;" d="M149 74L150 75L149 74M147 75L148 76L147 75M517 75L517 78L518 78L517 75z"/>
<path style="fill:#010101; stroke:none;" d="M186 76L187 77L186 76M690 76L691 77L690 76z"/>
<path style="fill:#111111; stroke:none;" d="M144 77L145 78L144 77z"/>
<path style="fill:#010101; stroke:none;" d="M497 77L498 78L497 77z"/>
<path style="fill:#1b1616; stroke:none;" d="M660 77L661 78L660 77z"/>
<path style="fill:#010101; stroke:none;" d="M143 78L144 79L143 78z"/>
<path style="fill:#1b1616; stroke:none;" d="M189 78L190 79L189 78M497 78L498 79L497 78M691 78L692 79L691 78M109 79L110 80L109 79M190 79L191 80L190 79z"/>
<path style="fill:#010101; stroke:none;" d="M396 79L397 80L396 79M666 79L667 80L666 79M191 80L192 81L191 80M318 80L318 139L319 139L319 99L318 80M376 80L377 81L376 80M668 80L669 81L668 80M192 81L193 82L192 81z"/>
<path style="fill:#1b1616; stroke:none;" d="M193 82L194 83L193 82z"/>
<path style="fill:#010101; stroke:none;" d="M693 82L694 83L693 82z"/>
<path style="fill:#1b1616; stroke:none;" d="M194 83L195 84L194 83M496 83L497 84L496 83M672 83L673 84L672 83M107 84L108 85L107 84M397 84L398 85L397 84z"/>
<path style="fill:#111111; stroke:none;" d="M516 84L517 85L516 84z"/>
<path style="fill:#1b1616; stroke:none;" d="M377 85L378 86L377 85z"/>
<path style="fill:#111111; stroke:none;" d="M694 85L695 86L694 85z"/>
<path style="fill:#010101; stroke:none;" d="M196 86L197 87L196 86z"/>
<path style="fill:#1b1616; stroke:none;" d="M674 86L675 87L674 86z"/>
<path style="fill:#010101; stroke:none;" d="M398 87L399 88L398 87z"/>
<path style="fill:#1b1616; stroke:none;" d="M675 88L676 89L675 88M105 90L106 91L105 90z"/>
<path style="fill:#010101; stroke:none;" d="M399 90L400 91L399 90z"/>
<path style="fill:#1b1616; stroke:none;" d="M494 90L495 91L494 90z"/>
<path style="fill:#010101; stroke:none;" d="M676 91L677 92L676 91M493 92L494 93L493 92M514 92L515 93L514 92M379 93L380 94L379 93z"/>
<path style="fill:#1b1616; stroke:none;" d="M104 94L105 95L104 94M200 94L201 95L200 94z"/>
<path style="fill:#010101; stroke:none;" d="M492 94L493 95L492 94M696 94L697 95L696 94M513 95L514 96L513 95z"/>
<path style="fill:#1b1616; stroke:none;" d="M696 95L697 96L696 95z"/>
<path style="fill:#010101; stroke:none;" d="M491 96L492 97L491 96M554 96L555 97L554 96M677 96L678 97L677 96z"/>
<path style="fill:#1b1616; stroke:none;" d="M201 97L202 98L201 97M512 97L513 98L512 97M554 97L555 98L554 97z"/>
<path style="fill:#010101; stroke:none;" d="M381 98L382 99L381 98z"/>
<path style="fill:#1b1616; stroke:none;" d="M490 98L491 99L490 98M535 98L536 99L535 98z"/>
<path style="fill:#010101; stroke:none;" d="M103 99L104 100L103 99M535 99L536 100L535 99z"/>
<path style="fill:#1b1616; stroke:none;" d="M382 100L383 101L382 100z"/>
<path style="fill:#010101; stroke:none;" d="M405 101L406 102L405 101z"/>
<path style="fill:#1b1616; stroke:none;" d="M202 102L203 103L202 102M383 102L384 103L383 102z"/>
<path style="fill:#010101; stroke:none;" d="M487 102L488 103L487 102z"/>
<path style="fill:#1b1616; stroke:none;" d="M555 103L556 104L555 103z"/>
<path style="fill:#010101; stroke:none;" d="M384 104L385 105L384 104z"/>
<path style="fill:#1b1616; stroke:none;" d="M408 105L409 106L408 105M508 105L509 106L508 105M409 106L410 107L409 106M484 106L485 107L484 106M556 106L557 107L556 106M386 107L387 108L386 107z"/>
<path style="fill:#010101; stroke:none;" d="M410 107L411 108L410 107z"/>
<path style="fill:#1b1616; stroke:none;" d="M483 107L484 108L483 107z"/>
<path style="fill:#010101; stroke:none;" d="M507 107L508 108L507 107M411 108L412 109L411 108z"/>
<path style="fill:#1b1616; stroke:none;" d="M482 108L483 109L482 108z"/>
<path style="fill:#010101; stroke:none;" d="M412 109L413 110L412 109z"/>
<path style="fill:#1b1616; stroke:none;" d="M481 109L482 110L481 109M537 109L538 110L537 109z"/>
<path style="fill:#010101; stroke:none;" d="M102 110L103 111L102 110z"/>
<path style="fill:#1b1616; stroke:none;" d="M413 110L414 111L413 110z"/>
<path style="fill:#010101; stroke:none;" d="M505 110L506 111L505 110z"/>
<path style="fill:#1b1616; stroke:none;" d="M414 111L415 112L414 111M479 111L480 112L479 111z"/>
<path style="fill:#010101; stroke:none;" d="M559 111L560 112L559 111z"/>
<path style="fill:#1b1616; stroke:none;" d="M102 112L103 113L102 112M538 112L539 113L538 112M102 114L102 215C102 229.757 98.8185 248.854 103 263L104 263C101.167 251.099 103 237.201 103 225L103 153C103 141.842 106.308 124.266 102 114z"/>
<path style="fill:#010101; stroke:none;" d="M391 114L392 115L391 114M418 114L419 115L418 114z"/>
<path style="fill:#111111; stroke:none;" d="M475 114L476 115L475 114z"/>
<path style="fill:#010101; stroke:none;" d="M502 114L503 115L502 114z"/>
<path style="fill:#1b1616; stroke:none;" d="M392 115L393 116L392 115z"/>
<path style="fill:#010101; stroke:none;" d="M539 115L540 116L539 115z"/>
<path style="fill:#1b1616; stroke:none;" d="M421 116L422 117L421 116M472 116L473 117L472 116M500 116L501 117L500 116z"/>
<path style="fill:#010101; stroke:none;" d="M423 117L424 118L423 117z"/>
<path style="fill:#1b1616; stroke:none;" d="M499 117L500 118L499 117M540 117L541 118L540 117M565 117L566 118L565 117M202 118L203 119L202 118z"/>
<path style="fill:#010101; stroke:none;" d="M425 118L426 119L425 118M468 118L469 119L468 118z"/>
<path style="fill:#1b1616; stroke:none;" d="M498 118L499 119L498 118z"/>
<path style="fill:#010101; stroke:none;" d="M567 118L568 119L567 118z"/>
<path style="fill:#1b1616; stroke:none;" d="M427 119L428 120L427 119M466 119L467 120L466 119z"/>
<path style="fill:#010101; stroke:none;" d="M541 119L542 120L541 119z"/>
<path style="fill:#1b1616; stroke:none;" d="M230 120L231 121L230 120z"/>
<path style="fill:#010101; stroke:none;" d="M463 120L464 121L463 120z"/>
<path style="fill:#1b1616; stroke:none;" d="M572 120L573 121L572 120z"/>
<path style="fill:#010101; stroke:none;" d="M433 121L434 122L433 121z"/>
<path style="fill:#1b1616; stroke:none;" d="M460 121L461 122L460 121z"/>
<path style="fill:#010101; stroke:none;" d="M201 122L202 123L201 122z"/>
<path style="fill:#1b1616; stroke:none;" d="M437 122L438 123L437 122z"/>
<path style="fill:#010101; stroke:none;" d="M438 122L439 123L438 122M455 122L456 123L455 122z"/>
<path style="fill:#1b1616; stroke:none;" d="M456 122L457 123L456 122M494 122L495 123L494 122M543 122L544 123L543 122M400 123L401 124L400 123M401 124L402 125L401 124z"/>
<path style="fill:#010101; stroke:none;" d="M492 124L493 125L492 124M200 125L201 126L200 125M402 125L403 126L402 125M491 125L492 126L491 125M545 125L546 126L545 125M229 126L230 127L229 126M546 126L547 127L546 126M199 127L200 128L199 127M547 127L548 128L547 127z"/>
<path style="fill:#1b1616; stroke:none;" d="M406 128L407 129L406 128z"/>
<path style="fill:#010101; stroke:none;" d="M487 128L488 129L487 128M548 128L549 129L548 128M198 129L199 130L198 129M549 129L550 130L549 129M484 130L485 131L484 130z"/>
<path style="fill:#1b1616; stroke:none;" d="M197 131L198 132L197 131z"/>
<path style="fill:#010101; stroke:none;" d="M412 132L413 133L412 132M553 132L554 133L553 132z"/>
<path style="fill:#1b1616; stroke:none;" d="M414 133L415 134L414 133z"/>
<path style="fill:#010101; stroke:none;" d="M479 133L480 134L479 133z"/>
<path style="fill:#111111; stroke:none;" d="M416 134L417 135L416 134z"/>
<path style="fill:#010101; stroke:none;" d="M477 134L478 135L477 134M418 135L419 136L418 135M475 135L476 136L475 135z"/>
<path style="fill:#1b1616; stroke:none;" d="M559 135L560 136L559 135M193 136L194 137L193 136M226 136L227 137L226 136M472 136L473 137L472 136z"/>
<path style="fill:#111111; stroke:none;" d="M561 136L562 137L561 136z"/>
<path style="fill:#1b1616; stroke:none;" d="M192 137L193 138L192 137z"/>
<path style="fill:#010101; stroke:none;" d="M470 137L471 138L470 137M426 138L427 139L426 138M467 138L468 139L467 138z"/>
<path style="fill:#1b1616; stroke:none;" d="M569 138L570 139L569 138M430 139L431 140L430 139z"/>
<path style="fill:#010101; stroke:none;" d="M463 139L464 140L463 139M435 140L436 141L435 140z"/>
<path style="fill:#1b1616; stroke:none;" d="M457 140L458 141L457 140z"/>
<path style="fill:#010101; stroke:none;" d="M458 140L459 141L458 140z"/>
<path style="fill:#1b1616; stroke:none;" d="M224 141L225 142L224 141M185 142L186 143L185 142M223 143L224 144L223 143z"/>
<path style="fill:#010101; stroke:none;" d="M180 144L181 145L180 144z"/>
<path style="fill:#1b1616; stroke:none;" d="M177 145L178 146L177 145z"/>
<path style="fill:#010101; stroke:none;" d="M222 145L223 146L222 145M172 146L173 147L172 146M57 147L58 148L57 147z"/>
<path style="fill:#1b1616; stroke:none;" d="M58.6667 147.333L59.3333 147.667L58.6667 147.333z"/>
<path style="fill:#211f1f; stroke:none;" d="M1 320L27 320L27 263C41.2895 272.424 58.2719 274.834 75 272.95C79.8074 272.408 88.9878 272.073 91.9722 267.581C96.1638 261.272 93 244.498 93 237C79.486 246.232 65.2901 252.813 49 244.954C27.1839 234.431 20.4075 199.149 39.0934 182.465C53.887 169.255 74.6486 172 93 172L93 147C72.6161 147 48.6795 144.512 30 154.32C2.547 168.735 1 195.664 1 223L1 320z"/>
<path style="fill:#010101; stroke:none;" d="M93 147L94 148L93 147M48 148L49 149L48 148z"/>
<path style="fill:#1b1616; stroke:none;" d="M49 148L50 149L49 148M93 148L93 172L94 172L93 148M220 148L221 149L220 148z"/>
<path style="fill:#010101; stroke:none;" d="M43 149L44 150L43 149M39 150L40 151L39 150M36 151L37 152L36 151M217 152L218 153L217 152M31 153L32 154L31 153z"/>
<path style="fill:#1b1616; stroke:none;" d="M216 153L217 154L216 153z"/>
<path style="fill:#010101; stroke:none;" d="M29 154L30 155L29 154z"/>
<path style="fill:#1b1616; stroke:none;" d="M215 154L216 155L215 154M214 155L215 156L214 155M26 156L27 157L26 156M213 156L214 157L213 156z"/>
<path style="fill:#010101; stroke:none;" d="M212 157L213 158L212 157z"/>
<path style="fill:#1b1616; stroke:none;" d="M209 159L210 160L209 159M208 160L209 161L208 160z"/>
<path style="fill:#010101; stroke:none;" d="M19 161L20 162L19 161z"/>
<path style="fill:#1b1616; stroke:none;" d="M18 162L19 163L18 162M205 162L206 163L205 162M17 163L18 164L17 163M16 164L17 165L16 164M202 164L203 165L202 164M15 165L16 166L15 165z"/>
<path style="fill:#111111; stroke:none;" d="M200 165L201 166L200 165M14 166L15 167L14 166z"/>
<path style="fill:#010101; stroke:none;" d="M198 166L199 167L198 166M13 167L14 168L13 167z"/>
<path style="fill:#1b1616; stroke:none;" d="M195 167L196 168L195 167z"/>
<path style="fill:#010101; stroke:none;" d="M193 168L194 169L193 168z"/>
<path style="fill:#1b1616; stroke:none;" d="M189 169L190 170L189 169M11 170L12 171L11 170M184 170L185 171L184 170z"/>
<path style="fill:#010101; stroke:none;" d="M185 170L186 171L185 170M10 171L11 172L10 171z"/>
<path style="fill:#1b1616; stroke:none;" d="M177 171L178 172L177 171z"/>
<path style="fill:#010101; stroke:none;" d="M178 171L179 172L178 171z"/>
<path style="fill:#1b1616; stroke:none;" d="M61 172L62 173L61 172M55 173L56 174L55 173z"/>
<path style="fill:#010101; stroke:none;" d="M49 175L50 176L49 175M7 176L8 177L7 176M45 177L46 178L45 177z"/>
<path style="fill:#1b1616; stroke:none;" d="M38 182L39 183L38 182M37 183L38 184L37 183M36 184L37 185L36 184z"/>
<path style="fill:#010101; stroke:none;" d="M34 187L35 188L34 187z"/>
<path style="fill:#1b1616; stroke:none;" d="M31 192L32 193L31 192z"/>
<path style="fill:#010101; stroke:none;" d="M336 193L337 194L336 193z"/>
<path style="fill:#211f1f; stroke:none;" d="M299 318L316 318L316 258C316 246.911 314.669 234.525 318.931 224C326.564 205.149 354.644 205.29 361.211 225C365.66 238.35 359.951 253.706 345 256.532C338.845 257.696 329.92 254.847 324.318 257.603C320.898 259.286 321.142 268.712 322.603 271.682C324.794 276.135 336.077 273.939 340 273.424C356.621 271.242 370.772 268.57 377.907 251C394.276 210.686 343.062 173.134 311.093 204.174C300.03 214.916 299 231.535 299 246L299 318z"/>
<path style="fill:#1b1616; stroke:none;" d="M338 193L338 194L342 194L338 193z"/>
<path style="fill:#111111; stroke:none;" d="M342 193L343 194L342 193z"/>
<path style="fill:#010101; stroke:none;" d="M343 193L344 194L343 193M433 193L434 194L433 193z"/>
<path style="fill:#111111; stroke:none;" d="M434 193L435 194L434 193z"/>
<path style="fill:#1b1616; stroke:none;" d="M435 193L435 194L439 194L435 193z"/>
<path style="fill:#211f1f; stroke:none;" d="M396 318L413 318C413 289.327 408.371 256.06 414.454 228C417.346 214.657 431.953 206.038 445 211.148C458.185 216.312 461.279 234.826 449.985 243.442C441.611 249.831 428.97 249 419 249L419 265C428.071 265 440.619 262.783 448.999 266.769C465.043 274.4 459 303.541 459 318L476 318C476 295.981 482.463 268.197 461 255C485.609 241.586 473.82 203.608 451 195.761C430.737 188.793 405.437 197.412 398.774 219C394.958 231.364 396 245.234 396 258L396 318z"/>
<path style="fill:#010101; stroke:none;" d="M540 193L541 194L540 193z"/>
<path style="fill:#211f1f; stroke:none;" d="M528 318L545 318L545 255L546 222L547 222C557.895 250.082 573.225 276.78 586.117 304C590.436 313.118 599.3 325.129 610.956 318.062C620.131 312.499 617 295.024 617 286L617 195L600 195L600 292C586.594 266.953 575.949 240.408 563.247 215C558.295 205.095 553.571 191.868 540 193.72C526.012 195.628 528 212.669 528 223L528 318z"/>
<path style="fill:#1b1616; stroke:none;" d="M543 193L544 194L543 193z"/>
<path style="fill:#010101; stroke:none;" d="M544 193L545 194L544 193z"/>
<path style="fill:#111111; stroke:none;" d="M350 194L351 195L350 194z"/>
<path style="fill:#010101; stroke:none;" d="M425 194L426 195L425 194M446 194L447 195L446 194z"/>
<path style="fill:#1b1616; stroke:none;" d="M548 194L549 195L548 194z"/>
<path style="fill:#010101; stroke:none;" d="M1 195L2 196L1 195M30 195L31 196L30 195M354 195L355 196L354 195z"/>
<path style="fill:#211f1f; stroke:none;" d="M492 195L492 318L509 318L509 195L492 195z"/>
<path style="fill:#1b1616; stroke:none;" d="M534 195L535 196L534 195M626 195L626 211L627 211L626 195z"/>
<path style="fill:#211f1f; stroke:none;" d="M627 195L627 211L656 211L656 318L673 318L673 211L703 211L703 195L627 195z"/>
<path style="fill:#1b1616; stroke:none;" d="M1 196L2 197L1 196z"/>
<path style="fill:#010101; stroke:none;" d="M322 196L323 197L322 196M357 196L358 197L357 196z"/>
<path style="fill:#1b1616; stroke:none;" d="M419 196L420 197L419 196z"/>
<path style="fill:#010101; stroke:none;" d="M320 197L321 198L320 197z"/>
<path style="fill:#1b1616; stroke:none;" d="M417 197L418 198L417 197z"/>
<path style="fill:#010101; stroke:none;" d="M318 198L319 199L318 198M361 198L362 199L361 198z"/>
<path style="fill:#1b1616; stroke:none;" d="M456 198L457 199L456 198z"/>
<path style="fill:#010101; stroke:none;" d="M413 199L414 200L413 199z"/>
<path style="fill:#1b1616; stroke:none;" d="M458 199L459 200L458 199z"/>
<path style="fill:#111111; stroke:none;" d="M530 199L531 200L530 199z"/>
<path style="fill:#1b1616; stroke:none;" d="M315 200L316 201L315 200z"/>
<path style="fill:#111111; stroke:none;" d="M364 200L365 201L364 200z"/>
<path style="fill:#1b1616; stroke:none;" d="M314 201L315 202L314 201M461 201L462 202L461 201z"/>
<path style="fill:#010101; stroke:none;" d="M529 201L530 202L529 201M409 202L410 203L409 202z"/>
<path style="fill:#1b1616; stroke:none;" d="M556 202L557 203L556 202z"/>
<path style="fill:#010101; stroke:none;" d="M0 203L1 204L0 203z"/>
<path style="fill:#1b1616; stroke:none;" d="M408 203L409 204L408 203z"/>
<path style="fill:#010101; stroke:none;" d="M557 203L558 204L557 203z"/>
<path style="fill:#1b1616; stroke:none;" d="M0 204L0 320L1 320L1 239L0 204M407 204L408 205L407 204M28 205L29 206L28 205M406 205L407 206L406 205z"/>
<path style="fill:#010101; stroke:none;" d="M558 205L559 206L558 205M28 206L29 207L28 206M405 206L406 207L405 206z"/>
<path style="fill:#1b1616; stroke:none;" d="M466 206L467 207L466 206M467 207L468 208L467 207M528 207L529 208L528 207M559 207L560 208L559 207z"/>
<path style="fill:#111111; stroke:none;" d="M307 208L308 209L307 208z"/>
<path style="fill:#1b1616; stroke:none;" d="M372 208L373 209L372 208z"/>
<path style="fill:#010101; stroke:none;" d="M468 208L469 209L468 208M373 209L374 210L373 209z"/>
<path style="fill:#1b1616; stroke:none;" d="M403 209L404 210L403 209M560 209L561 210L560 209M332 210L333 211L332 210M346 210L347 211L346 210z"/>
<path style="fill:#010101; stroke:none;" d="M402 210L403 211L402 210M429 210L430 211L429 210z"/>
<path style="fill:#1b1616; stroke:none;" d="M443 210L444 211L443 210M469 210L470 211L469 210z"/>
<path style="fill:#010101; stroke:none;" d="M28 211L29 212L28 211z"/>
<path style="fill:#1b1616; stroke:none;" d="M305 211L306 212L305 211z"/>
<path style="fill:#111111; stroke:none;" d="M349 211L350 212L349 211z"/>
<path style="fill:#1b1616; stroke:none;" d="M446 211L447 212L446 211M561 211L562 212L561 211M351 212L352 213L351 212z"/>
<path style="fill:#010101; stroke:none;" d="M375 212L376 213L375 212z"/>
<path style="fill:#1b1616; stroke:none;" d="M401 212L402 213L401 212M448 212L449 213L448 212M304 213L305 214L304 213z"/>
<path style="fill:#111111; stroke:none;" d="M326 213L327 214L326 213z"/>
<path style="fill:#010101; stroke:none;" d="M423 213L424 214L423 213M449 213L450 214L449 213M562 213L563 214L562 213z"/>
<path style="fill:#1b1616; stroke:none;" d="M128.333 214.667L128.667 215.333L128.333 214.667z"/>
<path style="fill:#010101; stroke:none;" d="M325 214L326 215L325 214z"/>
<path style="fill:#1b1616; stroke:none;" d="M354 214L355 215L354 214z"/>
<path style="fill:#010101; stroke:none;" d="M376 214L377 215L376 214z"/>
<path style="fill:#1b1616; stroke:none;" d="M400 214L401 215L400 214M303 215L304 216L303 215M355 215L356 216L355 215z"/>
<path style="fill:#010101; stroke:none;" d="M563 215L564 216L563 215z"/>
<path style="fill:#1b1616; stroke:none;" d="M356 216L357 217L356 216z"/>
<path style="fill:#010101; stroke:none;" d="M399 216L400 217L399 216z"/>
<path style="fill:#1b1616; stroke:none;" d="M472 216L473 217L472 216z"/>
<path style="fill:#010101; stroke:none;" d="M302 217L303 218L302 217M322 217L323 218L322 217M564 217L565 218L564 217z"/>
<path style="fill:#1b1616; stroke:none;" d="M321 218L322 219L321 218M29 219L30 220L29 219M378 219L379 220L378 219z"/>
<path style="fill:#010101; stroke:none;" d="M398 219L399 220L398 219z"/>
<path style="fill:#1b1616; stroke:none;" d="M545.333 219.667L545.667 220.333L545.333 219.667z"/>
<path style="fill:#010101; stroke:none;" d="M301 220L302 221L301 220M320 220L321 221L320 220z"/>
<path style="fill:#1b1616; stroke:none;" d="M359 220L360 221L359 220M455 220L456 221L455 220z"/>
<path style="fill:#010101; stroke:none;" d="M416 221L417 222L416 221z"/>
<path style="fill:#1b1616; stroke:none;" d="M127 222L128 223L127 222z"/>
<path style="fill:#010101; stroke:none;" d="M319 222L320 223L319 222z"/>
<path style="fill:#1b1616; stroke:none;" d="M360 222L361 223L360 222z"/>
<path style="fill:#010101; stroke:none;" d="M397 223L398 224L397 223z"/>
<path style="fill:#1b1616; stroke:none;" d="M415 223L416 224L415 223z"/>
<path style="fill:#010101; stroke:none;" d="M456 223L457 224L456 223z"/>
<path style="fill:#1b1616; stroke:none;" d="M545 223L546 224L545 223M547 223L548 224L547 223M318 224L319 225L318 224M397 224L398 225L397 224z"/>
<path style="fill:#111111; stroke:none;" d="M545.333 224.667L545.667 225.333L545.333 224.667z"/>
<path style="fill:#1b1616; stroke:none;" d="M300 225L301 226L300 225z"/>
<path style="fill:#010101; stroke:none;" d="M361 225L362 226L361 225z"/>
<path style="fill:#1b1616; stroke:none;" d="M548 225L549 226L548 225M31 226L32 227L31 226M545 226L545 232L546 232L545 226M568 226L569 227L568 226z"/>
<path style="fill:#010101; stroke:none;" d="M126 227L127 228L126 227z"/>
<path style="fill:#1b1616; stroke:none;" d="M32 228L33 229L32 228M380 228L381 229L380 228M569 228L570 229L569 228M33 230L34 231L33 230z"/>
<path style="fill:#111111; stroke:none;" d="M570 230L571 231L570 230z"/>
<path style="fill:#010101; stroke:none;" d="M396 231L397 232L396 231M299 232L300 233L299 232z"/>
<path style="fill:#1b1616; stroke:none;" d="M396.333 232.667L396.667 233.333L396.333 232.667M571 232L572 233L571 232z"/>
<path style="fill:#010101; stroke:none;" d="M35 233L36 234L35 233z"/>
<path style="fill:#111111; stroke:none;" d="M299 233L300 234L299 233z"/>
<path style="fill:#1b1616; stroke:none;" d="M413.333 233.667L413.667 234.333L413.333 233.667z"/>
<path style="fill:#010101; stroke:none;" d="M545 233L545 242L546 242L545 233z"/>
<path style="fill:#1b1616; stroke:none;" d="M316.333 234.667L316.667 235.333L316.333 234.667z"/>
<path style="fill:#010101; stroke:none;" d="M456 234L457 235L456 234M572 234L573 235L572 234M413 235L414 236L413 235z"/>
<path style="fill:#1b1616; stroke:none;" d="M37 236L38 237L37 236z"/>
<path style="fill:#010101; stroke:none;" d="M92.6667 236.333L93.3333 236.667L92.6667 236.333z"/>
<path style="fill:#1b1616; stroke:none;" d="M123 236L124 237L123 236z"/>
<path style="fill:#111111; stroke:none;" d="M316 236L317 237L316 236z"/>
<path style="fill:#010101; stroke:none;" d="M553 236L554 237L553 236M573 236L574 237L573 236z"/>
<path style="fill:#1b1616; stroke:none;" d="M38 237L39 238L38 237M93 237L93 268L94 268L93 237M316 237L316 317L317 317L317 262L316 237M455 237L456 238L455 237z"/>
<path style="fill:#010101; stroke:none;" d="M473 237L474 238L473 237z"/>
<path style="fill:#1b1616; stroke:none;" d="M39 238L40 239L39 238z"/>
<path style="fill:#010101; stroke:none;" d="M554 238L555 239L554 238M574 238L575 239L574 238z"/>
<path style="fill:#111111; stroke:none;" d="M40 239L41 240L40 239z"/>
<path style="fill:#1b1616; stroke:none;" d="M362 239L363 240L362 239M454 239L455 240L454 239z"/>
<path style="fill:#010101; stroke:none;" d="M88 240L89 241L88 240z"/>
<path style="fill:#1b1616; stroke:none;" d="M380 240L381 241L380 240z"/>
<path style="fill:#010101; stroke:none;" d="M453 240L454 241L453 240M555 240L556 241L555 240z"/>
<path style="fill:#1b1616; stroke:none;" d="M87 241L88 242L87 241z"/>
<path style="fill:#010101; stroke:none;" d="M121 241L122 242L121 241M452 241L453 242L452 241M44 242L45 243L44 242M451 242L452 243L451 242M84 243L85 244L84 243z"/>
<path style="fill:#1b1616; stroke:none;" d="M361 243L362 244L361 243z"/>
<path style="fill:#010101; stroke:none;" d="M450 243L451 244L450 243M471 243L472 244L471 243z"/>
<path style="fill:#1b1616; stroke:none;" d="M47 244L48 245L47 244M557 244L558 245L557 244M49 245L50 246L49 245z"/>
<path style="fill:#010101; stroke:none;" d="M80 245L81 246L80 245z"/>
<path style="fill:#1b1616; stroke:none;" d="M360 245L361 246L360 245M447 245L448 246L447 245z"/>
<path style="fill:#010101; stroke:none;" d="M470 245L471 246L470 245z"/>
<path style="fill:#1b1616; stroke:none;" d="M78 246L79 247L78 246z"/>
<path style="fill:#111111; stroke:none;" d="M118 246L119 247L118 246z"/>
<path style="fill:#1b1616; stroke:none;" d="M558 246L559 247L558 246M55 247L56 248L55 247z"/>
<path style="fill:#010101; stroke:none;" d="M56 247L57 248L56 247z"/>
<path style="fill:#1b1616; stroke:none;" d="M359 247L360 248L359 247z"/>
<path style="fill:#010101; stroke:none;" d="M441 247L442 248L441 247z"/>
<path style="fill:#1b1616; stroke:none;" d="M63 248L63 249L67 249L63 248z"/>
<path style="fill:#010101; stroke:none;" d="M358 248L359 249L358 248z"/>
<path style="fill:#1b1616; stroke:none;" d="M419 248L419 249L434 249L419 248M559 248L560 249L559 248z"/>
<path style="fill:#111111; stroke:none;" d="M116 249L117 250L116 249z"/>
<path style="fill:#1b1616; stroke:none;" d="M579 249L580 250L579 249M560 250L561 251L560 250M580 251L581 252L580 251z"/>
<path style="fill:#010101; stroke:none;" d="M354 252L355 253L354 252z"/>
<path style="fill:#1b1616; stroke:none;" d="M464 252L465 253L464 252z"/>
<path style="fill:#010101; stroke:none;" d="M113 253L114 254L113 253z"/>
<path style="fill:#1b1616; stroke:none;" d="M353 253L354 254L353 253z"/>
<path style="fill:#010101; stroke:none;" d="M581 253L582 254L581 253z"/>
<path style="fill:#1b1616; stroke:none;" d="M112 254L113 255L112 254z"/>
<path style="fill:#010101; stroke:none;" d="M351 254L352 255L351 254M462 254L463 255L462 254z"/>
<path style="fill:#1b1616; stroke:none;" d="M349 255L350 256L349 255M375 255L376 256L375 255z"/>
<path style="fill:#010101; stroke:none;" d="M461 255L462 256L461 255M582 255L583 256L582 255z"/>
<path style="fill:#1b1616; stroke:none;" d="M463 256L464 257L463 256M322 257L323 258L322 257z"/>
<path style="fill:#010101; stroke:none;" d="M374 257L375 258L374 257M465 257L466 258L465 257M583 257L584 258L583 257z"/>
<path style="fill:#1b1616; stroke:none;" d="M108 258L109 259L108 258M466 258L467 259L466 258z"/>
<path style="fill:#010101; stroke:none;" d="M107 259L108 260L107 259M371 261L372 262L371 261M565 261L566 262L565 261M102 262L103 263L102 262z"/>
<path style="fill:#1b1616; stroke:none;" d="M370 262L371 263L370 262z"/>
<path style="fill:#010101; stroke:none;" d="M27 263L28 264L27 263M566 263L567 264L566 263z"/>
<path style="fill:#1b1616; stroke:none;" d="M29 264L30 265L29 264M368 264L369 265L368 264z"/>
<path style="fill:#010101; stroke:none;" d="M472 264L473 265L472 264z"/>
<path style="fill:#1b1616; stroke:none;" d="M586 264L587 265L586 264z"/>
<path style="fill:#010101; stroke:none;" d="M367 265L368 266L367 265M567 265L568 266L567 265M32 266L33 267L32 266z"/>
<path style="fill:#1b1616; stroke:none;" d="M449 266L450 267L449 266z"/>
<path style="fill:#010101; stroke:none;" d="M473 266L474 267L473 266z"/>
<path style="fill:#1b1616; stroke:none;" d="M587 266L588 267L587 266z"/>
<path style="fill:#010101; stroke:none;" d="M34 267L35 268L34 267z"/>
<path style="fill:#1b1616; stroke:none;" d="M364 267L365 268L364 267z"/>
<path style="fill:#010101; stroke:none;" d="M568 267L569 268L568 267z"/>
<path style="fill:#1b1616; stroke:none;" d="M92 268L93 269L92 268M588 268L589 269L588 268z"/>
<path style="fill:#010101; stroke:none;" d="M39 269L40 270L39 269M90 269L91 270L90 269z"/>
<path style="fill:#1b1616; stroke:none;" d="M569 269L570 270L569 269z"/>
<path style="fill:#010101; stroke:none;" d="M42 270L43 271L42 270M87 270L88 271L87 270z"/>
<path style="fill:#1b1616; stroke:none;" d="M358 270L359 271L358 270M589 270L590 271L589 270M46 271L47 272L46 271M355 271L356 272L355 271z"/>
<path style="fill:#111111; stroke:none;" d="M570 271L571 272L570 271z"/>
<path style="fill:#010101; stroke:none;" d="M50 272L51 273L50 272z"/>
<path style="fill:#1b1616; stroke:none;" d="M51 272L52 273L51 272M78 272L79 273L78 272z"/>
<path style="fill:#010101; stroke:none;" d="M79 272L80 273L79 272M475 272L476 273L475 272z"/>
<path style="fill:#1b1616; stroke:none;" d="M590 272L591 273L590 272M60.6667 273.333L61.3333 273.667L60.6667 273.333M70 273L71 274L70 273M322 273L323 274L322 273M339.667 273.333L340.333 273.667L339.667 273.333z"/>
<path style="fill:#111111; stroke:none;" d="M341 273L342 274L341 273z"/>
<path style="fill:#010101; stroke:none;" d="M342 273L343 274L342 273z"/>
<path style="fill:#1b1616; stroke:none;" d="M475 273L476 274L475 273M571 273L572 274L571 273M457 274L458 275L457 274z"/>
<path style="fill:#010101; stroke:none;" d="M591 274L592 275L591 274M592 276L593 277L592 276z"/>
<path style="fill:#1b1616; stroke:none;" d="M458 277L459 278L458 277M573 277L574 278L573 277z"/>
<path style="fill:#010101; stroke:none;" d="M593 278L594 279L593 278M476.333 282.667L476.667 283.333L476.333 282.667z"/>
<path style="fill:#1b1616; stroke:none;" d="M595 283L596 284L595 283M459 284L460 285L459 284M476 285L476 317L477 317L476 285z"/>
<path style="fill:#010101; stroke:none;" d="M599 286L599 291L600 291L599 286M578 288L579 289L578 288z"/>
<path style="fill:#1b1616; stroke:none;" d="M598 289L599 290L598 289z"/>
<path style="fill:#010101; stroke:none;" d="M579 290L580 291L579 290z"/>
<path style="fill:#1b1616; stroke:none;" d="M599 291L600 292L599 291z"/>
<path style="fill:#010101; stroke:none;" d="M580 292L581 293L580 292z"/>
<path style="fill:#1b1616; stroke:none;" d="M581 294L582 295L581 294M582 296L583 297L582 296M584 300L585 301L584 300M585 302L586 303L585 302M586 304L587 305L586 304M616 308L617 309L616 308z"/>
<path style="fill:#010101; stroke:none;" d="M616 309L617 310L616 309z"/>
<path style="fill:#1b1616; stroke:none;" d="M589 310L590 311L589 310z"/>
<path style="fill:#010101; stroke:none;" d="M590 312L591 313L590 312z"/>
<path style="fill:#1b1616; stroke:none;" d="M591 313L592 314L591 313z"/>
<path style="fill:#010101; stroke:none;" d="M613 316L614 317L613 316M316 317L317 318L316 317M476 317L477 318L476 317z"/>
<path style="fill:#1b1616; stroke:none;" d="M595 317L596 318L595 317M600 319L601 320L600 319z"/>
<path style="fill:#010101; stroke:none;" d="M607 319L608 320L607 319z"/>
</svg>
