<svg version="1.1" id="Layer_1" xmlns="http://www.w3.org/2000/svg" xmlns:xlink="http://www.w3.org/1999/xlink" x="0px" y="0px"
	 width="100%" viewBox="0 0 704 320" enable-background="new 0 0 704 320" xml:space="preserve">
<path fill="#FFFFFF" opacity="1.000000" stroke="none" 
	d="
M601.000000,321.000000 
	C410.312439,321.000000 219.624878,321.000000 28.468750,320.531342 
	C28.000185,301.797058 28.000185,283.531433 28.000185,264.736603 
	C29.718164,265.492523 30.905787,265.917023 31.993801,266.520935 
	C33.118145,267.145020 34.062134,268.140106 35.228325,268.635712 
	C49.518925,274.708923 64.445030,276.170135 79.652046,273.847656 
	C84.572868,273.096130 89.248192,270.737244 94.289833,269.028839 
	C94.643097,268.638214 94.742355,268.332397 94.922729,267.562927 
	C94.957962,257.436584 94.912064,247.773819 94.928253,237.826950 
	C94.373604,237.694656 93.756866,237.846466 93.006577,238.322800 
	C83.630882,248.044418 72.032768,250.514053 59.617023,248.853928 
	C48.181858,247.324966 39.422199,241.035645 34.271286,230.538406 
	C30.472258,222.796188 28.858919,214.699722 29.803207,205.812805 
	C30.666800,197.685364 33.294758,190.831024 38.662895,184.818481 
	C46.529510,176.007599 57.039402,173.683624 68.059189,173.082581 
	C76.692024,172.611694 85.365456,172.884964 94.281097,172.873077 
	C94.640953,172.620224 94.740578,172.321899 94.922195,171.559814 
	C94.960648,163.725830 94.917099,156.355576 94.916138,148.711395 
	C94.646057,148.337708 94.333374,148.237961 93.554482,148.075348 
	C77.461937,148.675354 61.636684,148.017639 46.259422,150.333969 
	C26.850056,153.257675 12.711623,164.615448 6.089264,183.709259 
	C3.813161,190.271790 2.663997,197.225174 1.000000,204.000000 
	C1.000000,136.406128 1.000000,68.812241 1.000000,1.000000 
	C68.687401,1.000000 136.375046,1.000000 204.531281,1.468657 
	C204.999893,19.867218 204.999893,37.797123 204.999893,56.333263 
	C203.159531,55.438763 201.895493,54.824501 200.631561,54.210022 
	C181.501175,44.909443 161.872452,44.483093 141.902786,51.038002 
	C140.781052,51.406212 139.152954,52.697750 139.135452,53.586605 
	C138.938370,63.596279 139.010712,73.611259 139.010712,84.001442 
	C141.691528,81.921875 143.736298,80.335587 145.781189,78.749451 
	C156.869598,70.148636 174.120941,69.638153 186.460388,77.069366 
	C197.080399,83.465103 202.516220,93.584320 203.849335,105.526764 
	C205.236862,117.956596 202.598373,129.513184 192.965057,138.556366 
	C186.123184,144.979111 177.665894,147.487793 168.667664,147.899017 
	C158.914291,148.344742 149.124802,148.000031 139.237396,148.000031 
	C139.237396,156.527374 139.237396,164.591812 139.237396,172.003296 
	C153.672714,172.003296 167.869934,172.278076 182.051376,171.923111 
	C195.241806,171.592941 206.316315,165.552017 215.614441,156.729416 
	C226.734528,146.178024 231.606445,132.251434 231.815735,117.406006 
	C232.362671,78.610847 232.000000,39.802868 232.000000,1.000000 
	C299.687561,1.000000 367.375122,1.000000 435.385864,1.379541 
	C414.781830,4.611478 399.624542,16.555941 388.072601,33.246731 
	C377.408813,48.654327 375.085297,66.111160 377.963989,84.469833 
	C380.703766,101.942192 390.155884,115.534897 403.179504,126.516937 
	C416.771698,137.978424 432.816010,142.728607 450.890320,142.212326 
	C467.380981,141.741272 481.548035,136.124176 493.642090,125.720268 
	C514.269104,107.975815 522.512024,84.998169 517.812683,58.278790 
	C513.842651,35.705601 500.317932,19.250298 480.451508,8.345900 
	C474.179840,4.903464 466.847107,3.394070 460.000000,1.000000 
	C540.166687,1.000000 620.333313,0.994558 700.500000,1.041657 
	C702.000183,1.042538 703.500000,1.666658 704.531616,2.485330 
	C698.066772,2.980613 692.066467,2.877542 686.076904,3.085604 
	C684.701904,3.133368 682.587463,3.902569 682.127197,4.928956 
	C676.493896,17.490475 671.235474,30.220064 665.602905,42.781921 
	C662.471436,49.765877 657.938232,56.392910 650.476257,58.510208 
	C643.743713,60.420528 636.320129,59.895267 628.733765,60.480175 
	C628.733765,40.596172 628.733765,21.864435 628.733765,3.349249 
	C622.244324,3.349249 616.172363,3.349249 610.334106,3.349249 
	C610.334106,49.083397 610.334106,94.468124 610.334106,139.654373 
	C616.745300,139.654373 622.816895,139.654373 629.280945,139.654373 
	C629.280945,118.913269 629.280945,98.515968 629.280945,77.999901 
	C638.679932,77.999901 647.693176,77.570229 656.646973,78.115997 
	C666.364807,78.708344 673.561340,81.709244 676.728333,90.640678 
	C678.158691,94.674507 678.800720,99.159233 678.901367,103.460419 
	C679.184204,115.549194 679.000122,127.648911 679.000122,139.710876 
	C685.627625,139.710876 691.694763,139.710876 696.999146,139.710876 
	C696.999146,123.716179 697.665283,107.977585 696.753479,92.330948 
	C696.191345,82.686035 691.683472,74.004318 682.969238,68.569023 
	C679.672485,66.512733 675.913269,65.197960 672.583679,63.647137 
	C674.154602,62.188412 676.182312,61.025982 677.160217,59.276688 
	C682.255798,50.161705 687.268311,40.989872 691.953247,31.658802 
	C696.525757,22.551456 700.668518,13.228355 705.000000,3.999990 
	C705.000000,109.554634 705.000000,215.109268 705.000000,321.000000 
	C673.313232,321.000000 641.625244,321.000000 609.580811,320.643494 
	C615.039246,318.561462 617.996033,313.982941 617.997314,306.621735 
	C618.003540,271.290680 618.000122,235.959595 618.000122,200.628525 
	C618.000122,199.186630 618.000183,197.744720 618.000183,196.266312 
	C612.085327,196.266312 606.682434,196.266312 601.000122,196.266312 
	C601.000122,198.168076 601.000122,199.805664 601.000122,201.443237 
	C601.000183,227.941544 601.030396,254.439911 600.956726,280.938019 
	C600.948792,283.801147 600.338989,286.662659 599.875244,290.677612 
	C589.540588,269.041656 579.821106,248.592453 570.004822,228.189850 
	C565.770630,219.389191 561.713806,210.470200 556.894592,201.992569 
	C551.199707,191.974487 537.832703,191.622498 532.368225,199.480850 
	C530.078918,202.773087 529.169434,207.633698 529.139404,211.792130 
	C528.892334,245.954819 529.000183,280.120056 529.000305,314.284546 
	C529.000305,315.734741 529.000305,317.184967 529.000305,318.762634 
	C534.852600,318.762634 540.254639,318.762634 546.723511,318.762634 
	C546.723511,286.871735 546.723511,255.211899 546.723511,223.552078 
	C550.268494,228.599670 552.528381,233.739471 554.967285,238.792847 
	C566.090637,261.840027 577.355713,284.819489 588.356873,307.924652 
	C591.166260,313.825043 594.813904,318.544403 601.000000,321.000000 
M320.043365,138.103531 
	C320.043365,119.166473 320.043365,100.229416 320.043365,80.865280 
	C335.624817,80.865280 350.691345,80.865280 365.705811,80.865280 
	C365.705811,74.694786 365.705811,68.959534 365.705811,62.811829 
	C350.344269,62.811829 335.273621,62.811829 320.000885,62.811829 
	C320.000885,55.082527 319.342285,47.688210 320.246796,40.490314 
	C320.793304,36.141193 323.238586,31.740267 325.770264,27.998289 
	C329.678284,22.222054 336.226074,21.274691 342.624207,21.061293 
	C350.368744,20.802990 358.128448,21.000040 365.649353,21.000040 
	C365.649353,14.577100 365.649353,8.836576 365.649353,2.999778 
	C356.640747,2.999778 347.942444,2.472280 339.336578,3.138604 
	C329.461609,3.903193 320.210083,6.737971 312.555664,13.829018 
	C302.749268,22.913628 300.389404,34.855148 300.171753,47.044830 
	C299.642395,76.693008 299.996277,106.357018 300.011658,136.014648 
	C300.012299,137.282211 300.185242,138.549667 300.279327,139.835968 
	C306.751099,139.835968 312.892639,139.835968 319.554382,139.928085 
	C319.660278,139.629028 319.766205,139.329987 320.043365,138.103531 
M318.003448,317.085480 
	C318.002411,289.105164 318.014404,261.124847 317.991455,233.144531 
	C317.985535,225.920563 324.166260,214.497177 331.898865,212.156372 
	C344.446533,208.357986 357.729645,212.014404 362.652618,227.169373 
	C367.891693,243.297516 356.964783,259.021301 339.965302,258.049866 
	C334.391327,257.731323 328.783783,257.999725 323.311951,257.999725 
	C323.311951,264.014984 323.311951,269.417114 323.311951,275.385529 
	C332.871918,274.910004 342.204468,275.178925 351.281494,273.784454 
	C360.047699,272.437744 368.018524,268.959473 373.733093,261.051971 
	C378.062073,255.061768 380.698853,248.577393 381.576691,241.637985 
	C383.128540,229.369843 380.926178,217.723602 372.484009,207.979095 
	C365.467255,199.879852 356.894989,195.594635 345.900360,194.708862 
	C336.040527,193.914505 326.914703,194.953995 318.612366,200.026138 
	C304.677155,208.539627 300.302521,222.317062 300.095245,237.554062 
	C299.746429,263.197998 299.996094,288.850098 300.010345,314.498779 
	C300.011139,315.933289 300.160248,317.367737 300.243835,318.865021 
	C306.068756,318.865021 311.541412,318.865021 317.563568,318.961670 
	C317.667114,318.646790 317.770660,318.331909 318.003448,317.085480 
M398.993225,222.586731 
	C398.328796,227.226944 397.122955,231.863266 397.089661,236.507980 
	C396.903290,262.504089 396.996277,288.502228 397.010468,314.499695 
	C397.011261,315.934662 397.160919,317.369537 397.234680,318.686401 
	C403.007751,318.686401 408.411346,318.686401 413.999329,318.686401 
	C413.999329,292.892792 413.918945,267.411835 414.071930,241.932297 
	C414.100128,237.242188 414.570068,232.431030 415.711182,227.895950 
	C418.459015,216.975815 426.481720,210.012299 439.936340,210.933640 
	C453.173920,211.840118 460.405304,223.209229 457.366333,235.120880 
	C455.268921,243.342010 446.509735,248.888474 438.324402,248.985825 
	C432.240082,249.058197 426.154175,249.000061 420.367188,249.000061 
	C420.367188,255.116959 420.367188,260.528076 420.367188,265.999786 
	C428.230286,265.999786 435.727325,265.959717 443.223724,266.011078 
	C450.674408,266.062134 456.808899,270.338806 458.905182,277.391846 
	C459.770142,280.302002 459.919800,283.497864 459.953796,286.568665 
	C460.072937,297.324402 460.000000,308.082214 460.000000,318.704163 
	C466.393616,318.704163 472.135162,318.704163 476.999573,318.704163 
	C476.999573,305.167725 476.935608,291.930573 477.020111,278.694366 
	C477.085907,268.383423 472.132263,261.294220 463.344421,256.506592 
	C475.826111,243.367462 475.640442,240.313110 474.726013,224.432892 
	C474.412720,218.991776 472.095398,212.787674 468.676361,208.565903 
	C457.741638,195.063812 442.515381,191.855362 426.371338,195.433792 
	C412.489563,198.510788 402.794586,207.411148 398.993225,222.586731 
M102.989746,248.495148 
	C102.989746,253.671265 102.989746,258.847382 102.989746,264.998322 
	C106.278870,262.347137 108.712463,260.708252 110.761909,258.681000 
	C123.633987,245.948471 129.642609,229.940277 129.821533,212.364426 
	C130.330399,162.379730 130.000031,112.386505 129.999985,62.396633 
	C129.999985,60.992195 129.999985,59.587757 129.999985,57.590866 
	C123.008545,61.209259 118.832680,66.523567 114.962486,72.140839 
	C105.955345,85.213966 103.294205,100.256897 103.145332,115.525574 
	C102.716446,159.512482 102.991318,203.506271 102.989746,248.495148 
M554.999756,37.500000 
	C554.999756,26.073879 554.999756,14.647758 554.999756,3.305869 
	C548.336853,3.305869 542.267578,3.305869 536.000000,3.305869 
	C536.000000,17.917944 535.874878,32.226807 536.030701,46.532612 
	C536.240173,65.764244 535.869141,85.051750 537.268005,104.204193 
	C538.272339,117.954460 545.147644,129.084717 558.194458,135.733597 
	C571.639893,142.585632 585.819397,138.986343 599.717407,140.077225 
	C599.717407,133.717026 599.717407,127.983009 599.717407,122.000031 
	C592.298828,122.000031 585.134399,122.377892 578.028931,121.892403 
	C571.101013,121.419022 565.317566,118.791855 560.826660,112.647247 
	C556.254333,106.391159 555.269531,99.496971 555.124084,92.471619 
	C554.751648,74.487930 554.999756,56.491398 554.999756,37.500000 
M673.999939,233.500122 
	C673.999939,226.405136 673.999939,219.310165 673.999939,211.814011 
	C684.322632,211.814011 694.060791,211.814011 703.688843,211.814011 
	C703.688843,206.325012 703.688843,201.257431 703.688843,196.301865 
	C677.985352,196.301865 652.593994,196.301865 627.296570,196.301865 
	C627.296570,201.677322 627.296570,206.745605 627.296570,212.214432 
	C637.340210,212.214432 647.079224,212.214432 657.198730,212.214432 
	C657.198730,248.008484 657.198730,283.395172 657.198730,318.692505 
	C663.000732,318.692505 668.401611,318.692505 673.999939,318.692505 
	C673.999939,290.423370 673.999939,262.461700 673.999939,233.500122 
M493.000061,295.500000 
	C493.000061,303.262054 493.000061,311.024109 493.000061,318.694702 
	C498.996674,318.694702 504.398102,318.694702 509.705383,318.694702 
	C509.705383,277.667297 509.705383,236.946411 509.705383,196.304596 
	C504.004486,196.304596 498.602997,196.304596 493.000061,196.304596 
	C493.000061,229.239868 493.000061,261.869934 493.000061,295.500000 
z"/>
<path fill="#201E1E" opacity="1.000000" stroke="none" 
	d="
M94.035820,269.113617 
	C89.248192,270.737244 84.572868,273.096130 79.652046,273.847656 
	C64.445030,276.170135 49.518925,274.708923 35.228325,268.635712 
	C34.062134,268.140106 33.118145,267.145020 31.993801,266.520935 
	C30.905787,265.917023 29.718164,265.492523 28.000185,264.736603 
	C28.000185,283.531433 28.000185,301.797058 28.000092,320.531342 
	C19.027428,321.000000 10.054855,321.000000 1.000000,321.000000 
	C1.000000,282.312469 1.000000,243.624893 1.000000,204.468658 
	C2.663997,197.225174 3.813161,190.271790 6.089264,183.709259 
	C12.711623,164.615448 26.850056,153.257675 46.259422,150.333969 
	C61.636684,148.017639 77.461937,148.675354 93.643097,148.264557 
	C94.366966,148.753830 94.592163,148.910065 94.873535,148.985336 
	C94.917099,156.355576 94.960648,163.725830 94.745125,171.647827 
	C94.266754,172.361343 94.111687,172.570679 94.020851,172.827606 
	C85.365456,172.884964 76.692024,172.611694 68.059189,173.082581 
	C57.039402,173.683624 46.529510,176.007599 38.662895,184.818481 
	C33.294758,190.831024 30.666800,197.685364 29.803207,205.812805 
	C28.858919,214.699722 30.472258,222.796188 34.271286,230.538406 
	C39.422199,241.035645 48.181858,247.324966 59.617023,248.853928 
	C72.032768,250.514053 83.630882,248.044418 93.437492,238.360031 
	C94.290031,238.085495 94.578102,238.098282 94.866165,238.111053 
	C94.912064,247.773819 94.957962,257.436584 94.728409,267.692749 
	C94.239471,268.524475 94.100433,268.800262 94.035820,269.113617 
z"/>
<path fill="#201E1E" opacity="1.000000" stroke="none" 
	d="
M231.531342,1.000000 
	C232.000000,39.802868 232.362671,78.610847 231.815735,117.406006 
	C231.606445,132.251434 226.734528,146.178024 215.614441,156.729416 
	C206.316315,165.552017 195.241806,171.592941 182.051376,171.923111 
	C167.869934,172.278076 153.672714,172.003296 139.237396,172.003296 
	C139.237396,164.591812 139.237396,156.527374 139.237396,148.000031 
	C149.124802,148.000031 158.914291,148.344742 168.667664,147.899017 
	C177.665894,147.487793 186.123184,144.979111 192.965057,138.556366 
	C202.598373,129.513184 205.236862,117.956596 203.849335,105.526764 
	C202.516220,93.584320 197.080399,83.465103 186.460388,77.069366 
	C174.120941,69.638153 156.869598,70.148636 145.781189,78.749451 
	C143.736298,80.335587 141.691528,81.921875 139.010712,84.001442 
	C139.010712,73.611259 138.938370,63.596279 139.135452,53.586605 
	C139.152954,52.697750 140.781052,51.406212 141.902786,51.038002 
	C161.872452,44.483093 181.501175,44.909443 200.631561,54.210022 
	C201.895493,54.824501 203.159531,55.438763 204.999893,56.333263 
	C204.999893,37.797123 204.999893,19.867218 204.999939,1.468657 
	C213.687561,1.000000 222.375137,1.000000 231.531342,1.000000 
z"/>
<path fill="#201E1E" opacity="1.000000" stroke="none" 
	d="
M459.531372,1.000000 
	C466.847107,3.394070 474.179840,4.903464 480.451508,8.345900 
	C500.317932,19.250298 513.842651,35.705601 517.812683,58.278790 
	C522.512024,84.998169 514.269104,107.975815 493.642090,125.720268 
	C481.548035,136.124176 467.380981,141.741272 450.890320,142.212326 
	C432.816010,142.728607 416.771698,137.978424 403.179504,126.516937 
	C390.155884,115.534897 380.703766,101.942192 377.963989,84.469833 
	C375.085297,66.111160 377.408813,48.654327 388.072601,33.246731 
	C399.624542,16.555941 414.781830,4.611478 435.854492,1.379541 
	C443.687592,1.000000 451.375153,1.000000 459.531372,1.000000 
M415.021515,111.526825 
	C422.782928,118.907440 432.176361,123.047119 442.676453,123.893974 
	C458.922394,125.204254 473.120544,120.477928 484.423737,108.112541 
	C497.333679,93.989433 501.463928,77.579651 497.549377,59.083908 
	C494.963837,46.867428 488.214539,36.879620 478.593414,29.306173 
	C466.979553,20.164097 453.424988,17.138199 438.757690,19.673929 
	C426.897980,21.724272 417.547882,28.006008 409.651184,36.822636 
	C401.952484,45.418175 397.809845,55.551624 397.056854,66.936165 
	C395.907990,84.306053 401.235626,99.277153 415.021515,111.526825 
z"/>
<path fill="#201E1E" opacity="1.000000" stroke="none" 
	d="
M601.444153,321.000000 
	C594.813904,318.544403 591.166260,313.825043 588.356873,307.924652 
	C577.355713,284.819489 566.090637,261.840027 554.967285,238.792847 
	C552.528381,233.739471 550.268494,228.599670 546.723511,223.552078 
	C546.723511,255.211899 546.723511,286.871735 546.723511,318.762634 
	C540.254639,318.762634 534.852600,318.762634 529.000305,318.762634 
	C529.000305,317.184967 529.000305,315.734741 529.000305,314.284546 
	C529.000183,280.120056 528.892334,245.954819 529.139404,211.792130 
	C529.169434,207.633698 530.078918,202.773087 532.368225,199.480850 
	C537.832703,191.622498 551.199707,191.974487 556.894592,201.992569 
	C561.713806,210.470200 565.770630,219.389191 570.004822,228.189850 
	C579.821106,248.592453 589.540588,269.041656 599.875244,290.677612 
	C600.338989,286.662659 600.948792,283.801147 600.956726,280.938019 
	C601.030396,254.439911 601.000183,227.941544 601.000122,201.443237 
	C601.000122,199.805664 601.000122,198.168076 601.000122,196.266312 
	C606.682434,196.266312 612.085327,196.266312 618.000183,196.266312 
	C618.000183,197.744720 618.000122,199.186630 618.000122,200.628525 
	C618.000122,235.959595 618.003540,271.290680 617.997314,306.621735 
	C617.996033,313.982941 615.039246,318.561462 609.112183,320.643494 
	C606.629456,321.000000 604.258850,321.000000 601.444153,321.000000 
z"/>
<path fill="#201E1E" opacity="1.000000" stroke="none" 
	d="
M705.000000,3.749990 
	C700.668518,13.228355 696.525757,22.551456 691.953247,31.658802 
	C687.268311,40.989872 682.255798,50.161705 677.160217,59.276688 
	C676.182312,61.025982 674.154602,62.188412 672.583679,63.647137 
	C675.913269,65.197960 679.672485,66.512733 682.969238,68.569023 
	C691.683472,74.004318 696.191345,82.686035 696.753479,92.330948 
	C697.665283,107.977585 696.999146,123.716179 696.999146,139.710876 
	C691.694763,139.710876 685.627625,139.710876 679.000122,139.710876 
	C679.000122,127.648911 679.184204,115.549194 678.901367,103.460419 
	C678.800720,99.159233 678.158691,94.674507 676.728333,90.640678 
	C673.561340,81.709244 666.364807,78.708344 656.646973,78.115997 
	C647.693176,77.570229 638.679932,77.999901 629.280945,77.999901 
	C629.280945,98.515968 629.280945,118.913269 629.280945,139.654373 
	C622.816895,139.654373 616.745300,139.654373 610.334106,139.654373 
	C610.334106,94.468124 610.334106,49.083397 610.334106,3.349249 
	C616.172363,3.349249 622.244324,3.349249 628.733765,3.349249 
	C628.733765,21.864435 628.733765,40.596172 628.733765,60.480175 
	C636.320129,59.895267 643.743713,60.420528 650.476257,58.510208 
	C657.938232,56.392910 662.471436,49.765877 665.602905,42.781921 
	C671.235474,30.220064 676.493896,17.490475 682.127197,4.928956 
	C682.587463,3.902569 684.701904,3.133368 686.076904,3.085604 
	C692.066467,2.877542 698.066772,2.980613 704.531616,2.985334 
	C705.000000,3.000000 705.000000,3.500000 705.000000,3.749990 
z"/>
<path fill="#201E1E" opacity="1.000000" stroke="none" 
	d="
M398.996155,222.154907 
	C402.794586,207.411148 412.489563,198.510788 426.371338,195.433792 
	C442.515381,191.855362 457.741638,195.063812 468.676361,208.565903 
	C472.095398,212.787674 474.412720,218.991776 474.726013,224.432892 
	C475.640442,240.313110 475.826111,243.367462 463.344421,256.506592 
	C472.132263,261.294220 477.085907,268.383423 477.020111,278.694366 
	C476.935608,291.930573 476.999573,305.167725 476.999573,318.704163 
	C472.135162,318.704163 466.393616,318.704163 460.000000,318.704163 
	C460.000000,308.082214 460.072937,297.324402 459.953796,286.568665 
	C459.919800,283.497864 459.770142,280.302002 458.905182,277.391846 
	C456.808899,270.338806 450.674408,266.062134 443.223724,266.011078 
	C435.727325,265.959717 428.230286,265.999786 420.367188,265.999786 
	C420.367188,260.528076 420.367188,255.116959 420.367188,249.000061 
	C426.154175,249.000061 432.240082,249.058197 438.324402,248.985825 
	C446.509735,248.888474 455.268921,243.342010 457.366333,235.120880 
	C460.405304,223.209229 453.173920,211.840118 439.936340,210.933640 
	C426.481720,210.012299 418.459015,216.975815 415.711182,227.895950 
	C414.570068,232.431030 414.100128,237.242188 414.071930,241.932297 
	C413.918945,267.411835 413.999329,292.892792 413.999329,318.686401 
	C408.411346,318.686401 403.007751,318.686401 397.234680,318.686401 
	C397.160919,317.369537 397.011261,315.934662 397.010468,314.499695 
	C396.996277,288.502228 396.903290,262.504089 397.089661,236.507980 
	C397.122955,231.863266 398.328796,227.226944 398.996155,222.154907 
z"/>
<path fill="#201E1E" opacity="1.000000" stroke="none" 
	d="
M102.989746,247.996246 
	C102.991318,203.506271 102.716446,159.512482 103.145332,115.525574 
	C103.294205,100.256897 105.955345,85.213966 114.962486,72.140839 
	C118.832680,66.523567 123.008545,61.209259 129.999985,57.590866 
	C129.999985,59.587757 129.999985,60.992195 129.999985,62.396633 
	C130.000031,112.386505 130.330399,162.379730 129.821533,212.364426 
	C129.642609,229.940277 123.633987,245.948471 110.761909,258.681000 
	C108.712463,260.708252 106.278870,262.347137 102.989746,264.998322 
	C102.989746,258.847382 102.989746,253.671265 102.989746,247.996246 
z"/>
<path fill="#201E1E" opacity="1.000000" stroke="none" 
	d="
M317.014038,318.865021 
	C311.541412,318.865021 306.068756,318.865021 300.243835,318.865021 
	C300.160248,317.367737 300.011139,315.933289 300.010345,314.498779 
	C299.996094,288.850098 299.746429,263.197998 300.095245,237.554062 
	C300.302521,222.317062 304.677155,208.539627 318.612366,200.026138 
	C326.914703,194.953995 336.040527,193.914505 345.900360,194.708862 
	C356.894989,195.594635 365.467255,199.879852 372.484009,207.979095 
	C380.926178,217.723602 383.128540,229.369843 381.576691,241.637985 
	C380.698853,248.577393 378.062073,255.061768 373.733093,261.051971 
	C368.018524,268.959473 360.047699,272.437744 351.281494,273.784454 
	C342.204468,275.178925 332.871918,274.910004 323.311951,275.385529 
	C323.311951,269.417114 323.311951,264.014984 323.311951,257.999725 
	C328.783783,257.999725 334.391327,257.731323 339.965302,258.049866 
	C356.964783,259.021301 367.891693,243.297516 362.652618,227.169373 
	C357.729645,212.014404 344.446533,208.357986 331.898865,212.156372 
	C324.166260,214.497177 317.985535,225.920563 317.991455,233.144531 
	C318.014404,261.124847 318.002411,289.105164 317.748810,317.639404 
	C317.257843,318.362701 317.097809,318.586609 317.014038,318.865021 
z"/>
<path fill="#201E1E" opacity="1.000000" stroke="none" 
	d="
M319.034180,139.835968 
	C312.892639,139.835968 306.751099,139.835968 300.279327,139.835968 
	C300.185242,138.549667 300.012299,137.282211 300.011658,136.014648 
	C299.996277,106.357018 299.642395,76.693008 300.171753,47.044830 
	C300.389404,34.855148 302.749268,22.913628 312.555664,13.829018 
	C320.210083,6.737971 329.461609,3.903193 339.336578,3.138604 
	C347.942444,2.472280 356.640747,2.999778 365.649353,2.999778 
	C365.649353,8.836576 365.649353,14.577100 365.649353,21.000040 
	C358.128448,21.000040 350.368744,20.802990 342.624207,21.061293 
	C336.226074,21.274691 329.678284,22.222054 325.770264,27.998289 
	C323.238586,31.740267 320.793304,36.141193 320.246796,40.490314 
	C319.342285,47.688210 320.000885,55.082527 320.000885,62.811829 
	C335.273621,62.811829 350.344269,62.811829 365.705811,62.811829 
	C365.705811,68.959534 365.705811,74.694786 365.705811,80.865280 
	C350.691345,80.865280 335.624817,80.865280 320.043365,80.865280 
	C320.043365,100.229416 320.043365,119.166473 319.765991,138.637482 
	C319.261139,139.340973 319.109680,139.562485 319.034180,139.835968 
z"/>
<path fill="#201E1E" opacity="1.000000" stroke="none" 
	d="
M554.999756,38.000000 
	C554.999756,56.491398 554.751648,74.487930 555.124084,92.471619 
	C555.269531,99.496971 556.254333,106.391159 560.826660,112.647247 
	C565.317566,118.791855 571.101013,121.419022 578.028931,121.892403 
	C585.134399,122.377892 592.298828,122.000031 599.717407,122.000031 
	C599.717407,127.983009 599.717407,133.717026 599.717407,140.077225 
	C585.819397,138.986343 571.639893,142.585632 558.194458,135.733597 
	C545.147644,129.084717 538.272339,117.954460 537.268005,104.204193 
	C535.869141,85.051750 536.240173,65.764244 536.030701,46.532612 
	C535.874878,32.226807 536.000000,17.917944 536.000000,3.305869 
	C542.267578,3.305869 548.336853,3.305869 554.999756,3.305869 
	C554.999756,14.647758 554.999756,26.073879 554.999756,38.000000 
z"/>
<path fill="#201E1E" opacity="1.000000" stroke="none" 
	d="
M673.999939,234.000092 
	C673.999939,262.461700 673.999939,290.423370 673.999939,318.692505 
	C668.401611,318.692505 663.000732,318.692505 657.198730,318.692505 
	C657.198730,283.395172 657.198730,248.008484 657.198730,212.214432 
	C647.079224,212.214432 637.340210,212.214432 627.296570,212.214432 
	C627.296570,206.745605 627.296570,201.677322 627.296570,196.301865 
	C652.593994,196.301865 677.985352,196.301865 703.688843,196.301865 
	C703.688843,201.257431 703.688843,206.325012 703.688843,211.814011 
	C694.060791,211.814011 684.322632,211.814011 673.999939,211.814011 
	C673.999939,219.310165 673.999939,226.405136 673.999939,234.000092 
z"/>
<path fill="#201E1E" opacity="1.000000" stroke="none" 
	d="
M493.000061,295.000000 
	C493.000061,261.869934 493.000061,229.239868 493.000061,196.304596 
	C498.602997,196.304596 504.004486,196.304596 509.705383,196.304596 
	C509.705383,236.946411 509.705383,277.667297 509.705383,318.694702 
	C504.398102,318.694702 498.996674,318.694702 493.000061,318.694702 
	C493.000061,311.024109 493.000061,303.262054 493.000061,295.000000 
z"/>
<path fill="#141414" opacity="1.000000" stroke="none" 
	d="
M94.928253,237.826950 
	C94.578102,238.098282 94.290031,238.085495 93.571045,238.035492 
	C93.756866,237.846466 94.373604,237.694656 94.928253,237.826950 
z"/>
<path fill="#141414" opacity="1.000000" stroke="none" 
	d="
M94.289833,269.028839 
	C94.100433,268.800262 94.239471,268.524475 94.647278,268.156372 
	C94.742355,268.332397 94.643097,268.638214 94.289833,269.028839 
z"/>
<path fill="#171717" opacity="1.000000" stroke="none" 
	d="
M317.288818,318.913330 
	C317.097809,318.586609 317.257843,318.362701 317.684174,318.105194 
	C317.770660,318.331909 317.667114,318.646790 317.288818,318.913330 
z"/>
<path fill="#141414" opacity="1.000000" stroke="none" 
	d="
M94.281097,172.873077 
	C94.111687,172.570679 94.266754,172.361343 94.663116,172.111572 
	C94.740578,172.321899 94.640953,172.620224 94.281097,172.873077 
z"/>
<path fill="#141414" opacity="1.000000" stroke="none" 
	d="
M94.916138,148.711395 
	C94.592163,148.910065 94.366966,148.753830 94.109314,148.327438 
	C94.333374,148.237961 94.646057,148.337708 94.916138,148.711395 
z"/>
<path fill="#010101" opacity="1.000000" stroke="none" 
	d="
M319.294281,139.882019 
	C319.109680,139.562485 319.261139,139.340973 319.680359,139.101196 
	C319.766205,139.329987 319.660278,139.629028 319.294281,139.882019 
z"/>
<path fill="#FFFFFF" opacity="1.000000" stroke="none" 
	d="
M414.772827,111.267471 
	C401.235626,99.277153 395.907990,84.306053 397.056854,66.936165 
	C397.809845,55.551624 401.952484,45.418175 409.651184,36.822636 
	C417.547882,28.006008 426.897980,21.724272 438.757690,19.673929 
	C453.424988,17.138199 466.979553,20.164097 478.593414,29.306173 
	C488.214539,36.879620 494.963837,46.867428 497.549377,59.083908 
	C501.463928,77.579651 497.333679,93.989433 484.423737,108.112541 
	C473.120544,120.477928 458.922394,125.204254 442.676453,123.893974 
	C432.176361,123.047119 422.782928,118.907440 414.772827,111.267471 
z"/>
</svg>