<?xml version="1.0" standalone="no"?>
<!DOCTYPE svg PUBLIC "-//W3C//DTD SVG 20010904//EN"
 "http://www.w3.org/TR/2001/REC-SVG-20010904/DTD/svg10.dtd">
<svg version="1.0" xmlns="http://www.w3.org/2000/svg"
 width="704.000000pt" height="320.000000pt" viewBox="0 0 704.000000 320.000000"
 preserveAspectRatio="xMidYMid meet">

<g transform="translate(0.000000,320.000000) scale(0.100000,-0.100000)"
fill="#000000" stroke="none">
<path d="M2050 2914 l0 -286 -33 21 c-108 67 -294 102 -438 83 -46 -6 -108
-18 -136 -27 l-53 -16 0 -149 0 -150 48 34 c59 43 90 55 167 67 123 18 242
-21 322 -103 143 -147 144 -435 1 -563 -88 -80 -183 -104 -405 -105 l-133 0 0
-121 0 -122 208 6 c162 4 224 10 285 26 208 54 334 179 399 393 21 71 22 87
26 686 l3 612 -130 0 -131 0 0 -286z"/>
<path d="M4325 3185 c-38 -8 -113 -35 -165 -61 -79 -39 -109 -62 -185 -138
-146 -146 -207 -288 -208 -486 0 -126 15 -196 70 -310 39 -81 59 -107 137
-185 153 -153 289 -209 501 -209 102 1 132 5 200 27 115 38 199 91 290 182
141 142 195 264 202 460 6 146 -9 223 -69 345 -60 121 -187 249 -308 309 -47
23 -110 48 -140 57 -81 22 -241 26 -325 9z m310 -185 c156 -54 288 -196 330
-355 19 -76 19 -224 0 -300 -41 -157 -174 -301 -327 -354 -123 -42 -265 -35
-385 19 -76 35 -197 148 -233 220 -114 224 -82 466 86 640 111 115 234 164
390 155 44 -3 107 -14 139 -25z"/>
<path d="M3385 3174 c-107 -21 -136 -30 -178 -51 -105 -53 -173 -147 -197
-273 -6 -31 -10 -260 -10 -546 l0 -494 90 0 90 0 0 300 0 300 230 0 230 0 0
85 0 85 -230 0 -230 0 0 108 c0 127 17 197 61 246 48 56 95 69 257 74 l142 4
0 84 0 84 -117 -1 c-65 -1 -127 -3 -138 -5z"/>
<path d="M5362 2658 c3 -517 3 -524 26 -579 34 -86 79 -145 140 -189 82 -59
133 -72 310 -77 l152 -5 0 86 0 86 -113 0 c-146 0 -204 16 -262 75 -75 74 -75
78 -75 637 l0 488 -90 0 -91 0 3 -522z"/>
<path d="M6100 2495 l0 -685 90 0 90 0 0 310 0 310 173 0 c195 0 234 -10 279
-71 44 -59 48 -89 48 -325 l0 -224 90 0 90 0 0 228 c0 125 -5 246 -10 270 -26
111 -101 206 -188 238 -63 23 -67 28 -39 47 42 27 98 125 203 356 l103 226
-96 3 c-53 1 -100 -1 -104 -5 -4 -4 -44 -91 -89 -192 -107 -242 -121 -269
-167 -313 -51 -49 -80 -59 -195 -65 l-98 -6 0 292 0 291 -90 0 -90 0 0 -685z"/>
<path d="M1232 2585 c-55 -48 -124 -155 -155 -241 -46 -128 -48 -178 -45 -999
l3 -770 65 65 c108 108 162 236 180 428 12 128 14 1552 2 1552 -5 0 -27 -16
-50 -35z"/>
<path d="M505 1713 c-238 -33 -405 -177 -472 -408 -16 -54 -18 -125 -21 -677
l-3 -618 131 0 130 0 0 281 c0 154 3 279 8 277 151 -77 233 -98 372 -98 89 0
204 19 254 41 l26 12 0 153 0 152 -33 -31 c-79 -74 -222 -105 -344 -73 -77 19
-127 50 -181 111 -118 134 -123 391 -11 519 89 101 167 126 402 126 l167 0 0
120 0 120 -197 -1 c-109 -1 -211 -4 -228 -6z"/>
<path d="M3287 1249 c-135 -32 -245 -150 -276 -297 -7 -35 -11 -205 -11 -492
l0 -440 80 0 80 0 0 433 c0 469 2 491 54 566 78 112 262 120 354 16 48 -55 66
-113 60 -204 -5 -88 -39 -142 -113 -180 -43 -23 -64 -26 -172 -30 l-123 -3 0
-75 0 -75 153 4 c165 5 223 20 293 73 48 36 99 118 119 189 25 88 17 223 -17
298 -32 68 -107 152 -163 180 -86 45 -220 60 -318 37z"/>
<path d="M4240 1245 c-135 -38 -228 -140 -259 -283 -7 -35 -11 -207 -11 -498
l0 -445 78 3 77 3 5 455 c5 410 7 459 23 495 40 89 130 141 227 132 110 -10
183 -73 196 -169 8 -60 -10 -114 -54 -161 -48 -50 -109 -67 -234 -67 l-98 0 0
-75 0 -75 116 0 c141 0 196 -13 239 -55 46 -47 55 -97 55 -304 l0 -181 81 0
81 0 -4 228 c-3 191 -6 233 -21 267 -22 49 -69 99 -108 116 l-29 11 44 39 c65
57 90 123 91 234 0 79 -3 97 -28 147 -35 72 -110 140 -185 169 -74 28 -205 35
-282 14z"/>
<path d="M5361 1247 c-13 -6 -34 -25 -45 -40 -21 -28 -21 -37 -24 -608 l-2
-580 77 3 78 3 5 496 5 497 220 -460 c144 -301 232 -474 256 -501 33 -37 40
-41 96 -45 56 -4 63 -2 94 26 l34 30 3 586 2 586 -80 0 -80 0 -2 -484 -3 -484
-199 420 c-223 469 -247 513 -295 545 -38 26 -101 30 -140 10z"/>
<path d="M4922 633 l3 -608 78 -3 77 -3 0 611 0 610 -80 0 -80 0 2 -607z"/>
<path d="M6270 1165 l0 -75 150 0 150 0 0 -535 0 -535 80 0 80 0 0 535 0 535
150 0 150 0 0 75 0 75 -380 0 -380 0 0 -75z"/>
</g>
</svg>
